<svg width="350" height="200" viewBox="0 0 350 200" fill="none" xmlns="http://www.w3.org/2000/svg">
<g clip-path="url(#clip0_20_14)">
<rect width="350" height="200" fill="#E44A51"/>
<path d="M218.797 128.397L256.791 122.623C261.811 117.216 268.119 112.23 275.985 107.889C283.677 103.248 291.149 100.277 298.342 98.6333L322.339 68.6172C328.028 63.8156 336.671 65.9553 339.015 72.7462L351.98 105.333C364.643 114.943 373.825 126.715 378.298 134.462C389.788 154.363 395.408 184.203 338.885 216.836C282.363 249.469 259.331 229.683 247.841 209.781C243.368 202.034 237.765 188.196 235.774 172.425L214.035 144.903C209.326 139.478 211.795 130.923 218.797 128.397Z" fill="#E44A51"/>
<path fill-rule="evenodd" clip-rule="evenodd" d="M217.656 123.793L217.213 123.952C207.299 127.528 203.435 139.836 210.348 147.924L231.229 174.361C233.44 190.256 239.081 204.143 243.713 212.165C249.771 222.659 259.287 233.835 275.342 237.613C291.288 241.365 312.48 237.529 341.245 220.922C370.009 204.315 383.927 187.879 388.65 172.195C393.407 156.401 388.485 142.572 382.427 132.079C377.795 124.056 368.589 112.228 355.929 102.366L343.475 71.0634C339.927 61.0318 327.335 58.2251 319.282 65.0226L318.922 65.3264L295.659 94.4242C288.484 96.245 281.121 99.2909 273.626 103.803C265.97 108.038 259.652 112.891 254.487 118.195L217.656 123.793ZM256.791 122.623C261.811 117.216 268.12 112.231 275.986 107.89C283.677 103.249 291.15 100.278 298.342 98.6339L322.339 68.6177C328.028 63.8161 336.671 65.9558 339.015 72.7467L351.981 105.334C364.643 114.943 373.826 126.715 378.298 134.462C389.788 154.363 395.408 184.203 338.886 216.836C282.363 249.469 259.331 229.683 247.841 209.782C243.368 202.035 237.765 188.196 235.774 172.426L214.036 144.904C209.327 139.478 211.795 130.923 218.798 128.398L256.791 122.623Z" fill="#E44A51"/>
<path fill-rule="evenodd" clip-rule="evenodd" d="M217.656 123.793L217.213 123.952C207.299 127.528 203.435 139.836 210.348 147.924L231.229 174.361C233.44 190.256 239.081 204.143 243.713 212.165C249.771 222.659 259.287 233.835 275.342 237.613C291.288 241.365 312.48 237.529 341.245 220.922C370.009 204.315 383.927 187.879 388.65 172.195C393.407 156.401 388.485 142.572 382.427 132.079C377.795 124.056 368.589 112.228 355.929 102.366L343.475 71.0634C339.927 61.0318 327.335 58.2251 319.282 65.0226L318.922 65.3264L295.659 94.4242C288.484 96.245 281.121 99.2909 273.626 103.803C265.97 108.038 259.652 112.891 254.487 118.195L217.656 123.793ZM256.791 122.623C261.811 117.216 268.12 112.231 275.986 107.89C283.677 103.249 291.15 100.278 298.342 98.6339L322.339 68.6177C328.028 63.8161 336.671 65.9558 339.015 72.7467L351.981 105.334C364.643 114.943 373.826 126.715 378.298 134.462C389.788 154.363 395.408 184.203 338.886 216.836C282.363 249.469 259.331 229.683 247.841 209.782C243.368 202.035 237.765 188.196 235.774 172.426L214.036 144.904C209.327 139.478 211.795 130.923 218.798 128.398L256.791 122.623Z" fill="black" fill-opacity="0.5"/>
<path d="M336.291 212.342C363.652 196.546 381.482 176.206 371.19 158.38C360.899 140.554 329.25 130.338 299.022 147.79C268.793 165.242 261.817 197.759 272.109 215.585C282.401 233.411 308.931 228.139 336.291 212.342Z" fill="#F2F2F2"/>
<path d="M303.091 136.724L310.639 149.797C312.724 153.408 317.371 154.627 321.019 152.521C324.667 150.415 325.934 145.78 323.85 142.17L316.302 129.096C314.217 125.486 309.57 124.267 305.922 126.373C302.274 128.479 301.007 133.113 303.091 136.724Z" fill="#E44A51"/>
<path d="M303.091 136.724L310.639 149.797C312.724 153.408 317.371 154.627 321.019 152.521C324.667 150.415 325.934 145.78 323.85 142.17L316.302 129.096C314.217 125.486 309.57 124.267 305.922 126.373C302.274 128.479 301.007 133.113 303.091 136.724Z" fill="black" fill-opacity="0.5"/>
<path d="M274.192 153.408L281.741 166.482C283.825 170.093 288.472 171.312 292.12 169.206C295.768 167.099 297.036 162.465 294.952 158.855L287.403 145.781C285.319 142.171 280.672 140.951 277.024 143.058C273.376 145.164 272.108 149.798 274.192 153.408Z" fill="#E44A51"/>
<path d="M274.192 153.408L281.741 166.482C283.825 170.093 288.472 171.312 292.12 169.206C295.768 167.099 297.036 162.465 294.952 158.855L287.403 145.781C285.319 142.171 280.672 140.951 277.024 143.058C273.376 145.164 272.108 149.798 274.192 153.408Z" fill="black" fill-opacity="0.5"/>
<path d="M311.819 165.665C313.533 163.902 314.132 161.567 313.211 159.972C312.03 157.926 309.299 158.744 306.335 160.455C303.37 162.167 301.296 164.123 302.477 166.169C303.398 167.764 305.72 168.413 308.104 167.81L309.902 170.924C311.596 173.858 310.566 177.623 307.603 179.334C305.986 180.267 304.127 180.396 302.497 179.845C301.527 179.516 300.299 179.914 300.035 180.904L299.913 181.36C299.633 182.412 300.102 183.548 301.135 183.892C303.882 184.806 307.006 184.581 309.726 183.011C312.672 181.31 314.488 178.41 314.905 175.3C317.806 176.494 321.226 176.371 324.172 174.67C326.892 173.1 328.649 170.507 329.231 167.671C329.449 166.605 328.7 165.63 327.649 165.347L327.193 165.224C326.203 164.958 325.245 165.823 325.044 166.827C324.707 168.515 323.666 170.059 322.049 170.993C319.086 172.704 315.31 171.713 313.617 168.78L311.819 165.665Z" fill="#E44A51"/>
<path d="M311.819 165.665C313.533 163.902 314.132 161.567 313.211 159.972C312.03 157.926 309.299 158.744 306.335 160.455C303.37 162.167 301.296 164.123 302.477 166.169C303.398 167.764 305.72 168.413 308.104 167.81L309.902 170.924C311.596 173.858 310.566 177.623 307.603 179.334C305.986 180.267 304.127 180.396 302.497 179.845C301.527 179.516 300.299 179.914 300.035 180.904L299.913 181.36C299.633 182.412 300.102 183.548 301.135 183.892C303.882 184.806 307.006 184.581 309.726 183.011C312.672 181.31 314.488 178.41 314.905 175.3C317.806 176.494 321.226 176.371 324.172 174.67C326.892 173.1 328.649 170.507 329.231 167.671C329.449 166.605 328.7 165.63 327.649 165.347L327.193 165.224C326.203 164.958 325.245 165.823 325.044 166.827C324.707 168.515 323.666 170.059 322.049 170.993C319.086 172.704 315.31 171.713 313.617 168.78L311.819 165.665Z" fill="black" fill-opacity="0.5"/>
<path d="M25.9555 85.8148C25.8923 85.8148 25.837 85.7911 25.7896 85.7437C25.7422 85.6963 25.7185 85.641 25.7185 85.5778C25.7185 85.5383 25.7225 85.4948 25.7304 85.4474L28.6696 77.7793C28.7012 77.7003 28.7447 77.637 28.8 77.5896C28.8553 77.5422 28.9383 77.5185 29.0489 77.5185H29.8548C29.9575 77.5185 30.0365 77.5422 30.0918 77.5896C30.1551 77.637 30.2025 77.7003 30.2341 77.7793L33.1615 85.4474C33.1773 85.4948 33.1852 85.5383 33.1852 85.5778C33.1852 85.641 33.1615 85.6963 33.1141 85.7437C33.0667 85.7911 33.0114 85.8148 32.9481 85.8148H32.3437C32.2489 85.8148 32.1778 85.7911 32.1304 85.7437C32.0909 85.6963 32.0632 85.6528 32.0474 85.6133L31.3956 83.9304H27.5081L26.8563 85.6133C26.8484 85.6528 26.8207 85.6963 26.7733 85.7437C26.7259 85.7911 26.6548 85.8148 26.56 85.8148H25.9555ZM27.8518 82.9111H31.0518L29.4518 78.7037L27.8518 82.9111ZM37.3176 85.8148C37.2386 85.8148 37.1714 85.7911 37.1161 85.7437C37.0687 85.6884 37.045 85.6212 37.045 85.5422V77.803C37.045 77.7161 37.0687 77.6489 37.1161 77.6015C37.1714 77.5462 37.2386 77.5185 37.3176 77.5185H37.9102C38.005 77.5185 38.0761 77.5422 38.1235 77.5896C38.1709 77.637 38.1986 77.6765 38.2065 77.7082L40.7191 82.4963L43.2435 77.7082C43.2593 77.6765 43.287 77.637 43.3265 77.5896C43.3739 77.5422 43.445 77.5185 43.5398 77.5185H44.1206C44.2075 77.5185 44.2746 77.5462 44.322 77.6015C44.3773 77.6489 44.405 77.7161 44.405 77.803V85.5422C44.405 85.6212 44.3773 85.6884 44.322 85.7437C44.2746 85.7911 44.2075 85.8148 44.1206 85.8148H43.5398C43.4608 85.8148 43.3936 85.7911 43.3383 85.7437C43.2909 85.6884 43.2672 85.6212 43.2672 85.5422V79.7111L41.288 83.5748C41.2564 83.6538 41.2089 83.717 41.1457 83.7644C41.0825 83.804 41.0035 83.8237 40.9087 83.8237H40.5413C40.4386 83.8237 40.3556 83.804 40.2924 83.7644C40.2371 83.717 40.1897 83.6538 40.1502 83.5748L38.1709 79.7111V85.5422C38.1709 85.6212 38.1433 85.6884 38.088 85.7437C38.0406 85.7911 37.9773 85.8148 37.8983 85.8148H37.3176ZM48.754 85.9333C47.9402 85.9333 47.2922 85.6844 46.8103 85.1867C46.3283 84.681 46.0636 83.9936 46.0162 83.1244C46.0083 83.0217 46.0043 82.8914 46.0043 82.7333C46.0043 82.5674 46.0083 82.4331 46.0162 82.3304C46.0478 81.7694 46.1782 81.2795 46.4073 80.8607C46.6364 80.4341 46.9485 80.1062 47.3436 79.877C47.7466 79.6479 48.2167 79.5333 48.754 79.5333C49.3545 79.5333 49.8562 79.6598 50.2592 79.9126C50.67 80.1654 50.9821 80.5249 51.1955 80.9911C51.4088 81.4573 51.5155 82.0025 51.5155 82.6267V82.8282C51.5155 82.9151 51.4878 82.9822 51.4325 83.0296C51.3851 83.077 51.3219 83.1007 51.2429 83.1007H47.1421C47.1421 83.1086 47.1421 83.1244 47.1421 83.1482C47.1421 83.1719 47.1421 83.1916 47.1421 83.2074C47.1579 83.5314 47.229 83.8356 47.3555 84.12C47.4819 84.3965 47.6636 84.6217 47.9006 84.7956C48.1377 84.9694 48.4221 85.0563 48.754 85.0563C49.0384 85.0563 49.2755 85.0128 49.4651 84.9259C49.6547 84.839 49.8088 84.7442 49.9273 84.6415C50.0458 84.5309 50.1248 84.4479 50.1643 84.3926C50.2355 84.2899 50.2908 84.2306 50.3303 84.2148C50.3698 84.1911 50.433 84.1793 50.5199 84.1793H51.0888C51.1678 84.1793 51.231 84.203 51.2784 84.2504C51.3337 84.2899 51.3574 84.3491 51.3495 84.4282C51.3416 84.5467 51.2784 84.6928 51.1599 84.8667C51.0414 85.0326 50.8715 85.1985 50.6503 85.3644C50.429 85.5304 50.1604 85.6686 49.8443 85.7793C49.5283 85.882 49.1648 85.9333 48.754 85.9333ZM47.1421 82.283H50.3895V82.2474C50.3895 81.8919 50.3224 81.5758 50.1881 81.2993C50.0616 81.0227 49.876 80.8054 49.631 80.6474C49.3861 80.4815 49.0937 80.3985 48.754 80.3985C48.4142 80.3985 48.1219 80.4815 47.8769 80.6474C47.6399 80.8054 47.4582 81.0227 47.3318 81.2993C47.2053 81.5758 47.1421 81.8919 47.1421 82.2474V82.283ZM55.457 85.9333C54.8565 85.9333 54.3548 85.8188 53.9518 85.5896C53.5489 85.3605 53.2407 85.0444 53.0274 84.6415C52.8141 84.2306 52.6955 83.7644 52.6718 83.243C52.6639 83.1086 52.66 82.9388 52.66 82.7333C52.66 82.52 52.6639 82.3501 52.6718 82.2237C52.6955 81.6943 52.8141 81.2282 53.0274 80.8252C53.2486 80.4222 53.5607 80.1062 53.9637 79.877C54.3667 79.6479 54.8644 79.5333 55.457 79.5333C56.0496 79.5333 56.5474 79.6479 56.9504 79.877C57.3533 80.1062 57.6615 80.4222 57.8748 80.8252C58.096 81.2282 58.2185 81.6943 58.2422 82.2237C58.2501 82.3501 58.2541 82.52 58.2541 82.7333C58.2541 82.9388 58.2501 83.1086 58.2422 83.243C58.2185 83.7644 58.1 84.2306 57.8867 84.6415C57.6733 85.0444 57.3652 85.3605 56.9622 85.5896C56.5593 85.8188 56.0575 85.9333 55.457 85.9333ZM55.457 85.0207C55.9469 85.0207 56.338 84.8667 56.6304 84.5585C56.9227 84.2425 57.0807 83.7842 57.1044 83.1837C57.1123 83.0652 57.1163 82.9151 57.1163 82.7333C57.1163 82.5516 57.1123 82.4015 57.1044 82.283C57.0807 81.6825 56.9227 81.2282 56.6304 80.92C56.338 80.604 55.9469 80.4459 55.457 80.4459C54.9672 80.4459 54.5721 80.604 54.2718 80.92C53.9795 81.2282 53.8254 81.6825 53.8096 82.283C53.8017 82.4015 53.7978 82.5516 53.7978 82.7333C53.7978 82.9151 53.8017 83.0652 53.8096 83.1837C53.8254 83.7842 53.9795 84.2425 54.2718 84.5585C54.5721 84.8667 54.9672 85.0207 55.457 85.0207ZM61.2117 85.8148C61.1089 85.8148 61.0299 85.7911 60.9746 85.7437C60.9193 85.6884 60.8719 85.6133 60.8324 85.5185L59.1494 80.0193C59.1336 79.9798 59.1257 79.9403 59.1257 79.9007C59.1257 79.8296 59.1494 79.7704 59.1968 79.723C59.2522 79.6756 59.3114 79.6519 59.3746 79.6519H59.8961C59.983 79.6519 60.0502 79.6756 60.0976 79.723C60.145 79.7704 60.1766 79.8138 60.1924 79.8533L61.508 84.3215L62.9183 79.9007C62.9341 79.8454 62.9657 79.7901 63.0131 79.7348C63.0685 79.6795 63.1475 79.6519 63.2502 79.6519H63.6531C63.7559 79.6519 63.8349 79.6795 63.8902 79.7348C63.9455 79.7901 63.9771 79.8454 63.985 79.9007L65.3954 84.3215L66.7109 79.8533C66.7188 79.8138 66.7465 79.7704 66.7939 79.723C66.8413 79.6756 66.9085 79.6519 66.9954 79.6519H67.5168C67.588 79.6519 67.6472 79.6756 67.6946 79.723C67.742 79.7704 67.7657 79.8296 67.7657 79.9007C67.7657 79.9403 67.7578 79.9798 67.742 80.0193L66.0591 85.5185C66.0354 85.6133 65.9919 85.6884 65.9287 85.7437C65.8734 85.7911 65.7904 85.8148 65.6798 85.8148H65.2176C65.1149 85.8148 65.028 85.7911 64.9568 85.7437C64.8936 85.6884 64.8502 85.6133 64.8265 85.5185L63.4517 81.2756L62.0768 85.5185C62.0452 85.6133 61.9978 85.6884 61.9346 85.7437C61.8714 85.7911 61.7845 85.8148 61.6739 85.8148H61.2117ZM71.3697 85.9333C70.5559 85.9333 69.908 85.6844 69.426 85.1867C68.944 84.681 68.6793 83.9936 68.6319 83.1244C68.624 83.0217 68.6201 82.8914 68.6201 82.7333C68.6201 82.5674 68.624 82.4331 68.6319 82.3304C68.6635 81.7694 68.7939 81.2795 69.0231 80.8607C69.2522 80.4341 69.5643 80.1062 69.9593 79.877C70.3623 79.6479 70.8324 79.5333 71.3697 79.5333C71.9702 79.5333 72.4719 79.6598 72.8749 79.9126C73.2858 80.1654 73.5979 80.5249 73.8112 80.9911C74.0245 81.4573 74.1312 82.0025 74.1312 82.6267V82.8282C74.1312 82.9151 74.1035 82.9822 74.0482 83.0296C74.0008 83.077 73.9376 83.1007 73.8586 83.1007H69.7579C69.7579 83.1086 69.7579 83.1244 69.7579 83.1482C69.7579 83.1719 69.7579 83.1916 69.7579 83.2074C69.7737 83.5314 69.8448 83.8356 69.9712 84.12C70.0976 84.3965 70.2793 84.6217 70.5164 84.7956C70.7534 84.9694 71.0379 85.0563 71.3697 85.0563C71.6542 85.0563 71.8912 85.0128 72.0808 84.9259C72.2705 84.839 72.4245 84.7442 72.5431 84.6415C72.6616 84.5309 72.7406 84.4479 72.7801 84.3926C72.8512 84.2899 72.9065 84.2306 72.946 84.2148C72.9855 84.1911 73.0487 84.1793 73.1356 84.1793H73.7045C73.7835 84.1793 73.8468 84.203 73.8942 84.2504C73.9495 84.2899 73.9732 84.3491 73.9653 84.4282C73.9574 84.5467 73.8942 84.6928 73.7756 84.8667C73.6571 85.0326 73.4873 85.1985 73.266 85.3644C73.0448 85.5304 72.7761 85.6686 72.4601 85.7793C72.144 85.882 71.7806 85.9333 71.3697 85.9333ZM69.7579 82.283H73.0053V82.2474C73.0053 81.8919 72.9381 81.5758 72.8038 81.2993C72.6774 81.0227 72.4917 80.8054 72.2468 80.6474C72.0018 80.4815 71.7095 80.3985 71.3697 80.3985C71.03 80.3985 70.7376 80.4815 70.4927 80.6474C70.2556 80.8054 70.0739 81.0227 69.9475 81.2993C69.8211 81.5758 69.7579 81.8919 69.7579 82.2474V82.283ZM75.8209 85.8148C75.7419 85.8148 75.6747 85.7911 75.6194 85.7437C75.572 85.6884 75.5483 85.6212 75.5483 85.5422V79.9363C75.5483 79.8573 75.572 79.7901 75.6194 79.7348C75.6747 79.6795 75.7419 79.6519 75.8209 79.6519H76.3661C76.4451 79.6519 76.5123 79.6795 76.5676 79.7348C76.6229 79.7901 76.6506 79.8573 76.6506 79.9363V80.4578C76.8086 80.1891 77.0259 79.9877 77.3024 79.8533C77.5789 79.719 77.9108 79.6519 78.298 79.6519H78.772C78.851 79.6519 78.9143 79.6795 78.9617 79.7348C79.0091 79.7822 79.0328 79.8454 79.0328 79.9244V80.4104C79.0328 80.4894 79.0091 80.5526 78.9617 80.6C78.9143 80.6474 78.851 80.6711 78.772 80.6711H78.0609C77.6343 80.6711 77.2985 80.7975 77.0535 81.0504C76.8086 81.2953 76.6861 81.6311 76.6861 82.0578V85.5422C76.6861 85.6212 76.6585 85.6884 76.6031 85.7437C76.5478 85.7911 76.4807 85.8148 76.4017 85.8148H75.8209ZM81.9625 85.8148C81.8993 85.8148 81.844 85.7911 81.7966 85.7437C81.7492 85.6963 81.7255 85.641 81.7255 85.5778C81.7255 85.5383 81.7294 85.4948 81.7373 85.4474L84.6766 77.7793C84.7082 77.7003 84.7516 77.637 84.8069 77.5896C84.8622 77.5422 84.9452 77.5185 85.0558 77.5185H85.8618C85.9645 77.5185 86.0435 77.5422 86.0988 77.5896C86.162 77.637 86.2094 77.7003 86.241 77.7793L89.1684 85.4474C89.1842 85.4948 89.1921 85.5383 89.1921 85.5778C89.1921 85.641 89.1684 85.6963 89.121 85.7437C89.0736 85.7911 89.0183 85.8148 88.9551 85.8148H88.3506C88.2558 85.8148 88.1847 85.7911 88.1373 85.7437C88.0978 85.6963 88.0702 85.6528 88.0543 85.6133L87.4025 83.9304H83.5151L82.8632 85.6133C82.8553 85.6528 82.8277 85.6963 82.7803 85.7437C82.7329 85.7911 82.6618 85.8148 82.5669 85.8148H81.9625ZM83.8588 82.9111H87.0588L85.4588 78.7037L83.8588 82.9111ZM90.7319 85.8148C90.645 85.8148 90.5779 85.7911 90.5305 85.7437C90.4831 85.6884 90.4593 85.6212 90.4593 85.5422V77.803C90.4593 77.7161 90.4831 77.6489 90.5305 77.6015C90.5779 77.5462 90.645 77.5185 90.7319 77.5185H93.7423C94.327 77.5185 94.8327 77.6133 95.2593 77.803C95.6939 77.9926 96.0297 78.277 96.2668 78.6563C96.5038 79.0277 96.6223 79.4938 96.6223 80.0548C96.6223 80.6158 96.5038 81.082 96.2668 81.4533C96.0297 81.8247 95.6939 82.1052 95.2593 82.2948C94.8327 82.4844 94.327 82.5793 93.7423 82.5793H91.6445V85.5422C91.6445 85.6212 91.6169 85.6884 91.5616 85.7437C91.5142 85.7911 91.447 85.8148 91.3601 85.8148H90.7319ZM91.6327 81.5837H93.6831C94.2677 81.5837 94.7063 81.4533 94.9986 81.1926C95.291 80.9319 95.4371 80.5526 95.4371 80.0548C95.4371 79.5649 95.2949 79.1857 95.0105 78.917C94.726 78.6484 94.2835 78.5141 93.6831 78.5141H91.6327V81.5837ZM98.3361 85.8148C98.2492 85.8148 98.182 85.7911 98.1346 85.7437C98.0872 85.6884 98.0635 85.6212 98.0635 85.5422V77.7911C98.0635 77.7121 98.0872 77.6489 98.1346 77.6015C98.182 77.5462 98.2492 77.5185 98.3361 77.5185H98.9643C99.0433 77.5185 99.1065 77.5462 99.1539 77.6015C99.2092 77.6489 99.2368 77.7121 99.2368 77.7911V85.5422C99.2368 85.6212 99.2092 85.6884 99.1539 85.7437C99.1065 85.7911 99.0433 85.8148 98.9643 85.8148H98.3361ZM107.196 85.9333C106.469 85.9333 105.865 85.799 105.383 85.5304C104.909 85.2617 104.549 84.8864 104.304 84.4044C104.059 83.9225 103.925 83.3615 103.901 82.7215C103.893 82.3975 103.889 82.0499 103.889 81.6785C103.889 81.3072 103.893 80.9516 103.901 80.6119C103.925 79.9719 104.059 79.4109 104.304 78.9289C104.549 78.4469 104.909 78.0716 105.383 77.803C105.865 77.5343 106.469 77.4 107.196 77.4C107.741 77.4 108.219 77.4751 108.63 77.6252C109.041 77.7753 109.381 77.9768 109.649 78.2296C109.926 78.4825 110.135 78.7669 110.277 79.083C110.42 79.3911 110.499 79.7111 110.515 80.043C110.522 80.1141 110.499 80.1733 110.443 80.2207C110.396 80.2682 110.337 80.2919 110.266 80.2919H109.614C109.543 80.2919 109.479 80.2721 109.424 80.2326C109.377 80.1931 109.341 80.122 109.317 80.0193C109.183 79.403 108.93 78.9803 108.559 78.7511C108.196 78.522 107.737 78.4074 107.184 78.4074C106.552 78.4074 106.05 78.5891 105.679 78.9526C105.308 79.3082 105.106 79.881 105.075 80.6711C105.051 81.319 105.051 81.9827 105.075 82.6622C105.106 83.4524 105.308 84.0291 105.679 84.3926C106.05 84.7482 106.552 84.9259 107.184 84.9259C107.737 84.9259 108.196 84.8114 108.559 84.5822C108.93 84.3531 109.183 83.9304 109.317 83.3141C109.341 83.2114 109.377 83.1403 109.424 83.1007C109.479 83.0612 109.543 83.0415 109.614 83.0415H110.266C110.337 83.0415 110.396 83.0652 110.443 83.1126C110.499 83.16 110.522 83.2193 110.515 83.2904C110.499 83.6222 110.42 83.9462 110.277 84.2622C110.135 84.5704 109.926 84.8509 109.649 85.1037C109.381 85.3565 109.041 85.558 108.63 85.7082C108.219 85.8583 107.741 85.9333 107.196 85.9333ZM112.233 85.8148C112.154 85.8148 112.087 85.7911 112.032 85.7437C111.984 85.6884 111.961 85.6212 111.961 85.5422V77.6726C111.961 77.5936 111.984 77.5304 112.032 77.483C112.087 77.4277 112.154 77.4 112.233 77.4H112.79C112.877 77.4 112.944 77.4277 112.992 77.483C113.039 77.5304 113.063 77.5936 113.063 77.6726V85.5422C113.063 85.6212 113.039 85.6884 112.992 85.7437C112.944 85.7911 112.877 85.8148 112.79 85.8148H112.233ZM115.219 85.8148C115.14 85.8148 115.073 85.7911 115.018 85.7437C114.97 85.6884 114.946 85.6212 114.946 85.5422V79.9244C114.946 79.8454 114.97 79.7822 115.018 79.7348C115.073 79.6795 115.14 79.6519 115.219 79.6519H115.788C115.867 79.6519 115.93 79.6795 115.978 79.7348C116.025 79.7822 116.049 79.8454 116.049 79.9244V85.5422C116.049 85.6212 116.025 85.6884 115.978 85.7437C115.93 85.7911 115.867 85.8148 115.788 85.8148H115.219ZM115.124 78.5022C115.045 78.5022 114.978 78.4785 114.923 78.4311C114.875 78.3758 114.852 78.3086 114.852 78.2296V77.5896C114.852 77.5106 114.875 77.4474 114.923 77.4C114.978 77.3447 115.045 77.317 115.124 77.317H115.871C115.95 77.317 116.013 77.3447 116.061 77.4C116.116 77.4474 116.144 77.5106 116.144 77.5896V78.2296C116.144 78.3086 116.116 78.3758 116.061 78.4311C116.013 78.4785 115.95 78.5022 115.871 78.5022H115.124ZM120.293 85.9333C119.48 85.9333 118.832 85.6844 118.35 85.1867C117.868 84.681 117.603 83.9936 117.556 83.1244C117.548 83.0217 117.544 82.8914 117.544 82.7333C117.544 82.5674 117.548 82.4331 117.556 82.3304C117.587 81.7694 117.718 81.2795 117.947 80.8607C118.176 80.4341 118.488 80.1062 118.883 79.877C119.286 79.6479 119.756 79.5333 120.293 79.5333C120.894 79.5333 121.396 79.6598 121.799 79.9126C122.209 80.1654 122.521 80.5249 122.735 80.9911C122.948 81.4573 123.055 82.0025 123.055 82.6267V82.8282C123.055 82.9151 123.027 82.9822 122.972 83.0296C122.924 83.077 122.861 83.1007 122.782 83.1007H118.681C118.681 83.1086 118.681 83.1244 118.681 83.1482C118.681 83.1719 118.681 83.1916 118.681 83.2074C118.697 83.5314 118.768 83.8356 118.895 84.12C119.021 84.3965 119.203 84.6217 119.44 84.7956C119.677 84.9694 119.961 85.0563 120.293 85.0563C120.578 85.0563 120.815 85.0128 121.004 84.9259C121.194 84.839 121.348 84.7442 121.467 84.6415C121.585 84.5309 121.664 84.4479 121.704 84.3926C121.775 84.2899 121.83 84.2306 121.87 84.2148C121.909 84.1911 121.972 84.1793 122.059 84.1793H122.628C122.707 84.1793 122.77 84.203 122.818 84.2504C122.873 84.2899 122.897 84.3491 122.889 84.4282C122.881 84.5467 122.818 84.6928 122.699 84.8667C122.581 85.0326 122.411 85.1985 122.19 85.3644C121.968 85.5304 121.7 85.6686 121.384 85.7793C121.068 85.882 120.704 85.9333 120.293 85.9333ZM118.681 82.283H121.929V82.2474C121.929 81.8919 121.862 81.5758 121.727 81.2993C121.601 81.0227 121.415 80.8054 121.17 80.6474C120.925 80.4815 120.633 80.3985 120.293 80.3985C119.954 80.3985 119.661 80.4815 119.416 80.6474C119.179 80.8054 118.998 81.0227 118.871 81.2993C118.745 81.5758 118.681 81.8919 118.681 82.2474V82.283ZM124.745 85.8148C124.666 85.8148 124.598 85.7911 124.543 85.7437C124.496 85.6884 124.472 85.6212 124.472 85.5422V79.9244C124.472 79.8454 124.496 79.7822 124.543 79.7348C124.598 79.6795 124.666 79.6519 124.745 79.6519H125.302C125.381 79.6519 125.444 79.6795 125.491 79.7348C125.547 79.7822 125.574 79.8454 125.574 79.9244V80.4459C125.78 80.1773 126.036 79.96 126.345 79.7941C126.661 79.6203 127.064 79.5333 127.553 79.5333C128.067 79.5333 128.502 79.6479 128.857 79.877C129.221 80.0983 129.493 80.4104 129.675 80.8133C129.857 81.2084 129.948 81.6706 129.948 82.2V85.5422C129.948 85.6212 129.924 85.6884 129.876 85.7437C129.829 85.7911 129.766 85.8148 129.687 85.8148H129.094C129.015 85.8148 128.948 85.7911 128.893 85.7437C128.845 85.6884 128.822 85.6212 128.822 85.5422V82.2593C128.822 81.7062 128.687 81.2756 128.419 80.9674C128.15 80.6514 127.755 80.4933 127.233 80.4933C126.744 80.4933 126.348 80.6514 126.048 80.9674C125.756 81.2756 125.61 81.7062 125.61 82.2593V85.5422C125.61 85.6212 125.582 85.6884 125.527 85.7437C125.479 85.7911 125.416 85.8148 125.337 85.8148H124.745ZM133.984 85.8148C133.542 85.8148 133.182 85.7319 132.906 85.5659C132.629 85.3921 132.428 85.1511 132.301 84.843C132.175 84.5269 132.112 84.1556 132.112 83.7289V80.6H131.187C131.108 80.6 131.041 80.5763 130.986 80.5289C130.938 80.4736 130.915 80.4064 130.915 80.3274V79.9244C130.915 79.8454 130.938 79.7822 130.986 79.7348C131.041 79.6795 131.108 79.6519 131.187 79.6519H132.112V77.6726C132.112 77.5936 132.135 77.5304 132.183 77.483C132.238 77.4277 132.305 77.4 132.384 77.4H132.941C133.02 77.4 133.084 77.4277 133.131 77.483C133.186 77.5304 133.214 77.5936 133.214 77.6726V79.6519H134.684C134.763 79.6519 134.826 79.6795 134.873 79.7348C134.929 79.7822 134.956 79.8454 134.956 79.9244V80.3274C134.956 80.4064 134.929 80.4736 134.873 80.5289C134.826 80.5763 134.763 80.6 134.684 80.6H133.214V83.6459C133.214 84.0173 133.277 84.3096 133.404 84.523C133.53 84.7363 133.755 84.843 134.079 84.843H134.802C134.881 84.843 134.944 84.8706 134.992 84.9259C135.047 84.9733 135.075 85.0365 135.075 85.1156V85.5422C135.075 85.6212 135.047 85.6884 134.992 85.7437C134.944 85.7911 134.881 85.8148 134.802 85.8148H133.984ZM27.9111 99.8148C27.8084 99.8148 27.7254 99.7872 27.6622 99.7319C27.6069 99.6765 27.5674 99.5975 27.5437 99.4948L26.0148 91.8859C26.0069 91.8543 26.003 91.8267 26.003 91.803C26.003 91.7793 26.003 91.7635 26.003 91.7556C26.003 91.6923 26.0267 91.637 26.0741 91.5896C26.1215 91.5422 26.1768 91.5185 26.24 91.5185H26.8563C27.0222 91.5185 27.117 91.5857 27.1407 91.72L28.3496 97.8356L29.6296 93.64C29.6533 93.5689 29.6928 93.5057 29.7481 93.4504C29.8114 93.3872 29.8983 93.3556 30.0089 93.3556H30.4474C30.5659 93.3556 30.6528 93.3872 30.7081 93.4504C30.7635 93.5057 30.799 93.5689 30.8148 93.64L32.1067 97.8356L33.3037 91.72C33.3274 91.5857 33.4262 91.5185 33.6 91.5185H34.2163C34.2795 91.5185 34.3348 91.5422 34.3822 91.5896C34.4296 91.637 34.4533 91.6923 34.4533 91.7556C34.4533 91.7635 34.4494 91.7793 34.4415 91.803C34.4415 91.8267 34.4415 91.8543 34.4415 91.8859L32.9126 99.4948C32.8889 99.5975 32.8454 99.6765 32.7822 99.7319C32.7269 99.7872 32.6479 99.8148 32.5452 99.8148H32.083C31.9723 99.8148 31.8854 99.7872 31.8222 99.7319C31.759 99.6765 31.7156 99.6054 31.6918 99.5185L30.2222 95.003L28.7644 99.5185C28.7328 99.6054 28.6854 99.6765 28.6222 99.7319C28.5669 99.7872 28.4839 99.8148 28.3733 99.8148H27.9111ZM35.983 99.8148C35.9039 99.8148 35.8368 99.7911 35.7815 99.7437C35.7341 99.6884 35.7104 99.6212 35.7104 99.5422V93.9363C35.7104 93.8573 35.7341 93.7901 35.7815 93.7348C35.8368 93.6795 35.9039 93.6519 35.983 93.6519H36.5281C36.6072 93.6519 36.6743 93.6795 36.7296 93.7348C36.7849 93.7901 36.8126 93.8573 36.8126 93.9363V94.4578C36.9706 94.1891 37.1879 93.9877 37.4644 93.8533C37.741 93.719 38.0728 93.6519 38.46 93.6519H38.9341C39.0131 93.6519 39.0763 93.6795 39.1237 93.7348C39.1711 93.7822 39.1948 93.8454 39.1948 93.9244V94.4104C39.1948 94.4894 39.1711 94.5526 39.1237 94.6C39.0763 94.6474 39.0131 94.6711 38.9341 94.6711H38.223C37.7963 94.6711 37.4605 94.7975 37.2156 95.0504C36.9706 95.2953 36.8481 95.6311 36.8481 96.0578V99.5422C36.8481 99.6212 36.8205 99.6884 36.7652 99.7437C36.7099 99.7911 36.6427 99.8148 36.5637 99.8148H35.983ZM40.4853 99.8148C40.4063 99.8148 40.3391 99.7911 40.2838 99.7437C40.2364 99.6884 40.2127 99.6212 40.2127 99.5422V93.9244C40.2127 93.8454 40.2364 93.7822 40.2838 93.7348C40.3391 93.6795 40.4063 93.6519 40.4853 93.6519H41.0542C41.1332 93.6519 41.1964 93.6795 41.2438 93.7348C41.2912 93.7822 41.3149 93.8454 41.3149 93.9244V99.5422C41.3149 99.6212 41.2912 99.6884 41.2438 99.7437C41.1964 99.7911 41.1332 99.8148 41.0542 99.8148H40.4853ZM40.3905 92.5022C40.3114 92.5022 40.2443 92.4785 40.189 92.4311C40.1416 92.3758 40.1179 92.3086 40.1179 92.2296V91.5896C40.1179 91.5106 40.1416 91.4474 40.189 91.4C40.2443 91.3447 40.3114 91.317 40.3905 91.317H41.1371C41.2161 91.317 41.2793 91.3447 41.3268 91.4C41.3821 91.4474 41.4097 91.5106 41.4097 91.5896V92.2296C41.4097 92.3086 41.3821 92.3758 41.3268 92.4311C41.2793 92.4785 41.2161 92.5022 41.1371 92.5022H40.3905ZM45.489 99.8148C45.0465 99.8148 44.687 99.7319 44.4105 99.5659C44.1339 99.3921 43.9324 99.1511 43.806 98.843C43.6796 98.5269 43.6164 98.1556 43.6164 97.7289V94.6H42.6919C42.6129 94.6 42.5458 94.5763 42.4905 94.5289C42.443 94.4736 42.4193 94.4064 42.4193 94.3274V93.9244C42.4193 93.8454 42.443 93.7822 42.4905 93.7348C42.5458 93.6795 42.6129 93.6519 42.6919 93.6519H43.6164V91.6726C43.6164 91.5936 43.6401 91.5304 43.6875 91.483C43.7428 91.4277 43.81 91.4 43.889 91.4H44.446C44.525 91.4 44.5882 91.4277 44.6356 91.483C44.691 91.5304 44.7186 91.5936 44.7186 91.6726V93.6519H46.1882C46.2672 93.6519 46.3305 93.6795 46.3779 93.7348C46.4332 93.7822 46.4608 93.8454 46.4608 93.9244V94.3274C46.4608 94.4064 46.4332 94.4736 46.3779 94.5289C46.3305 94.5763 46.2672 94.6 46.1882 94.6H44.7186V97.6459C44.7186 98.0173 44.7818 98.3096 44.9082 98.523C45.0347 98.7363 45.2598 98.843 45.5838 98.843H46.3068C46.3858 98.843 46.449 98.8706 46.4964 98.9259C46.5517 98.9733 46.5793 99.0365 46.5793 99.1156V99.5422C46.5793 99.6212 46.5517 99.6884 46.4964 99.7437C46.449 99.7911 46.3858 99.8148 46.3068 99.8148H45.489ZM50.1186 99.8148C49.6761 99.8148 49.3166 99.7319 49.0401 99.5659C48.7635 99.3921 48.5621 99.1511 48.4356 98.843C48.3092 98.5269 48.246 98.1556 48.246 97.7289V94.6H47.3216C47.2426 94.6 47.1754 94.5763 47.1201 94.5289C47.0727 94.4736 47.049 94.4064 47.049 94.3274V93.9244C47.049 93.8454 47.0727 93.7822 47.1201 93.7348C47.1754 93.6795 47.2426 93.6519 47.3216 93.6519H48.246V91.6726C48.246 91.5936 48.2697 91.5304 48.3171 91.483C48.3724 91.4277 48.4396 91.4 48.5186 91.4H49.0756C49.1547 91.4 49.2179 91.4277 49.2653 91.483C49.3206 91.5304 49.3482 91.5936 49.3482 91.6726V93.6519H50.8179C50.8969 93.6519 50.9601 93.6795 51.0075 93.7348C51.0628 93.7822 51.0905 93.8454 51.0905 93.9244V94.3274C51.0905 94.4064 51.0628 94.4736 51.0075 94.5289C50.9601 94.5763 50.8969 94.6 50.8179 94.6H49.3482V97.6459C49.3482 98.0173 49.4114 98.3096 49.5379 98.523C49.6643 98.7363 49.8895 98.843 50.2134 98.843H50.9364C51.0154 98.843 51.0786 98.8706 51.126 98.9259C51.1813 98.9733 51.209 99.0365 51.209 99.1156V99.5422C51.209 99.6212 51.1813 99.6884 51.126 99.7437C51.0786 99.7911 51.0154 99.8148 50.9364 99.8148H50.1186ZM54.7956 99.9333C53.9818 99.9333 53.3339 99.6844 52.8519 99.1867C52.37 98.681 52.1053 97.9936 52.0579 97.1244C52.05 97.0217 52.046 96.8914 52.046 96.7333C52.046 96.5674 52.05 96.4331 52.0579 96.3304C52.0895 95.7694 52.2198 95.2795 52.449 94.8607C52.6781 94.4341 52.9902 94.1062 53.3853 93.877C53.7882 93.6479 54.2584 93.5333 54.7956 93.5333C55.3961 93.5333 55.8979 93.6598 56.3008 93.9126C56.7117 94.1654 57.0238 94.5249 57.2371 94.9911C57.4505 95.4573 57.5571 96.0025 57.5571 96.6267V96.8282C57.5571 96.9151 57.5295 96.9822 57.4742 97.0296C57.4268 97.077 57.3635 97.1007 57.2845 97.1007H53.1838C53.1838 97.1086 53.1838 97.1244 53.1838 97.1482C53.1838 97.1719 53.1838 97.1916 53.1838 97.2074C53.1996 97.5314 53.2707 97.8356 53.3971 98.12C53.5235 98.3965 53.7053 98.6217 53.9423 98.7956C54.1793 98.9694 54.4638 99.0563 54.7956 99.0563C55.0801 99.0563 55.3171 99.0128 55.5068 98.9259C55.6964 98.839 55.8505 98.7442 55.969 98.6415C56.0875 98.5309 56.1665 98.4479 56.206 98.3926C56.2771 98.2899 56.3324 98.2306 56.3719 98.2148C56.4114 98.1911 56.4747 98.1793 56.5616 98.1793H57.1305C57.2095 98.1793 57.2727 98.203 57.3201 98.2504C57.3754 98.2899 57.3991 98.3491 57.3912 98.4282C57.3833 98.5467 57.3201 98.6928 57.2016 98.8667C57.0831 99.0326 56.9132 99.1985 56.6919 99.3644C56.4707 99.5304 56.2021 99.6686 55.886 99.7793C55.57 99.882 55.2065 99.9333 54.7956 99.9333ZM53.1838 96.283H56.4312V96.2474C56.4312 95.8919 56.364 95.5758 56.2297 95.2993C56.1033 95.0227 55.9176 94.8054 55.6727 94.6474C55.4277 94.4815 55.1354 94.3985 54.7956 94.3985C54.4559 94.3985 54.1635 94.4815 53.9186 94.6474C53.6816 94.8054 53.4998 95.0227 53.3734 95.2993C53.247 95.5758 53.1838 95.8919 53.1838 96.2474V96.283ZM59.2468 99.8148C59.1678 99.8148 59.1007 99.7911 59.0454 99.7437C58.998 99.6884 58.9743 99.6212 58.9743 99.5422V93.9244C58.9743 93.8454 58.998 93.7822 59.0454 93.7348C59.1007 93.6795 59.1678 93.6519 59.2468 93.6519H59.8039C59.8829 93.6519 59.9461 93.6795 59.9935 93.7348C60.0488 93.7822 60.0765 93.8454 60.0765 93.9244V94.4459C60.2819 94.1773 60.5387 93.96 60.8468 93.7941C61.1629 93.6203 61.5659 93.5333 62.0557 93.5333C62.5693 93.5333 63.0039 93.6479 63.3594 93.877C63.7229 94.0983 63.9955 94.4104 64.1772 94.8133C64.3589 95.2084 64.4498 95.6706 64.4498 96.2V99.5422C64.4498 99.6212 64.4261 99.6884 64.3787 99.7437C64.3313 99.7911 64.2681 99.8148 64.1891 99.8148H63.5965C63.5175 99.8148 63.4503 99.7911 63.395 99.7437C63.3476 99.6884 63.3239 99.6212 63.3239 99.5422V96.2593C63.3239 95.7062 63.1896 95.2756 62.9209 94.9674C62.6523 94.6514 62.2572 94.4933 61.7357 94.4933C61.2459 94.4933 60.8508 94.6514 60.5506 94.9674C60.2582 95.2756 60.112 95.7062 60.112 96.2593V99.5422C60.112 99.6212 60.0844 99.6884 60.0291 99.7437C59.9817 99.7911 59.9185 99.8148 59.8394 99.8148H59.2468ZM69.3394 99.8148C69.2604 99.8148 69.1933 99.7911 69.138 99.7437C69.0906 99.6884 69.0668 99.6212 69.0668 99.5422V93.9244C69.0668 93.8454 69.0906 93.7822 69.138 93.7348C69.1933 93.6795 69.2604 93.6519 69.3394 93.6519H69.9083C69.9873 93.6519 70.0506 93.6795 70.098 93.7348C70.1454 93.7822 70.1691 93.8454 70.1691 93.9244V99.5422C70.1691 99.6212 70.1454 99.6884 70.098 99.7437C70.0506 99.7911 69.9873 99.8148 69.9083 99.8148H69.3394ZM69.2446 92.5022C69.1656 92.5022 69.0985 92.4785 69.0431 92.4311C68.9957 92.3758 68.972 92.3086 68.972 92.2296V91.5896C68.972 91.5106 68.9957 91.4474 69.0431 91.4C69.0985 91.3447 69.1656 91.317 69.2446 91.317H69.9913C70.0703 91.317 70.1335 91.3447 70.1809 91.4C70.2362 91.4474 70.2639 91.5106 70.2639 91.5896V92.2296C70.2639 92.3086 70.2362 92.3758 70.1809 92.4311C70.1335 92.4785 70.0703 92.5022 69.9913 92.5022H69.2446ZM72.3256 99.8148C72.2465 99.8148 72.1794 99.7911 72.1241 99.7437C72.0767 99.6884 72.053 99.6212 72.053 99.5422V93.9244C72.053 93.8454 72.0767 93.7822 72.1241 93.7348C72.1794 93.6795 72.2465 93.6519 72.3256 93.6519H72.8826C72.9616 93.6519 73.0248 93.6795 73.0722 93.7348C73.1275 93.7822 73.1552 93.8454 73.1552 93.9244V94.4459C73.3606 94.1773 73.6174 93.96 73.9256 93.7941C74.2416 93.6203 74.6446 93.5333 75.1344 93.5333C75.648 93.5333 76.0826 93.6479 76.4381 93.877C76.8016 94.0983 77.0742 94.4104 77.2559 94.8133C77.4377 95.2084 77.5285 95.6706 77.5285 96.2V99.5422C77.5285 99.6212 77.5048 99.6884 77.4574 99.7437C77.41 99.7911 77.3468 99.8148 77.2678 99.8148H76.6752C76.5962 99.8148 76.529 99.7911 76.4737 99.7437C76.4263 99.6884 76.4026 99.6212 76.4026 99.5422V96.2593C76.4026 95.7062 76.2683 95.2756 75.9996 94.9674C75.731 94.6514 75.3359 94.4933 74.8144 94.4933C74.3246 94.4933 73.9295 94.6514 73.6293 94.9674C73.3369 95.2756 73.1907 95.7062 73.1907 96.2593V99.5422C73.1907 99.6212 73.1631 99.6884 73.1078 99.7437C73.0604 99.7911 72.9972 99.8148 72.9181 99.8148H72.3256ZM84.0846 99.8148C84.0056 99.8148 83.9385 99.7911 83.8831 99.7437C83.8357 99.6884 83.812 99.6212 83.812 99.5422V92.5733H81.5365C81.4575 92.5733 81.3903 92.5496 81.335 92.5022C81.2876 92.4469 81.2639 92.3798 81.2639 92.3007V91.803C81.2639 91.7161 81.2876 91.6489 81.335 91.6015C81.3903 91.5462 81.4575 91.5185 81.5365 91.5185H87.2491C87.336 91.5185 87.4031 91.5462 87.4506 91.6015C87.5059 91.6489 87.5335 91.7161 87.5335 91.803V92.3007C87.5335 92.3798 87.5059 92.4469 87.4506 92.5022C87.4031 92.5496 87.336 92.5733 87.2491 92.5733H84.9854V99.5422C84.9854 99.6212 84.9577 99.6884 84.9024 99.7437C84.855 99.7911 84.7878 99.8148 84.7009 99.8148H84.0846ZM88.8259 102.067C88.7627 102.067 88.7074 102.043 88.66 101.996C88.6126 101.948 88.5889 101.893 88.5889 101.83C88.5889 101.798 88.5928 101.766 88.6007 101.735C88.6086 101.703 88.6244 101.664 88.6481 101.616L89.5607 99.4474L87.297 94.1022C87.2575 94.0074 87.2378 93.9403 87.2378 93.9007C87.2378 93.8296 87.2615 93.7704 87.3089 93.723C87.3563 93.6756 87.4156 93.6519 87.4867 93.6519H88.0674C88.1464 93.6519 88.2096 93.6716 88.257 93.7111C88.3044 93.7506 88.336 93.798 88.3519 93.8533L90.1533 98.1674L92.0022 93.8533C92.0259 93.798 92.0575 93.7506 92.097 93.7111C92.1444 93.6716 92.2116 93.6519 92.2985 93.6519H92.8556C92.9267 93.6519 92.9859 93.6756 93.0333 93.723C93.0807 93.7704 93.1044 93.8257 93.1044 93.8889C93.1044 93.9284 93.0847 93.9995 93.0452 94.1022L89.6793 101.865C89.6556 101.92 89.62 101.968 89.5726 102.007C89.5331 102.047 89.4699 102.067 89.383 102.067H88.8259ZM94.5596 102.067C94.4806 102.067 94.4135 102.039 94.3581 101.984C94.3107 101.936 94.287 101.873 94.287 101.794V93.9244C94.287 93.8454 94.3107 93.7822 94.3581 93.7348C94.4135 93.6795 94.4806 93.6519 94.5596 93.6519H95.1048C95.1838 93.6519 95.247 93.6795 95.2944 93.7348C95.3498 93.7822 95.3774 93.8454 95.3774 93.9244V94.4459C95.567 94.1852 95.8199 93.9679 96.1359 93.7941C96.452 93.6203 96.847 93.5333 97.3211 93.5333C97.7636 93.5333 98.1389 93.6084 98.447 93.7585C98.7631 93.9086 99.0199 94.1141 99.2174 94.3748C99.4228 94.6356 99.5769 94.9319 99.6796 95.2637C99.7823 95.5956 99.8377 95.9511 99.8456 96.3304C99.8535 96.4568 99.8574 96.5911 99.8574 96.7333C99.8574 96.8756 99.8535 97.0099 99.8456 97.1363C99.8377 97.5077 99.7823 97.8632 99.6796 98.203C99.5769 98.5348 99.4228 98.8311 99.2174 99.0919C99.0199 99.3447 98.7631 99.5501 98.447 99.7082C98.1389 99.8583 97.7636 99.9333 97.3211 99.9333C96.8628 99.9333 96.4757 99.8504 96.1596 99.6844C95.8515 99.5106 95.5986 99.2973 95.4011 99.0444V101.794C95.4011 101.873 95.3774 101.936 95.33 101.984C95.2826 102.039 95.2154 102.067 95.1285 102.067H94.5596ZM97.0722 98.9733C97.4831 98.9733 97.8031 98.8864 98.0322 98.7126C98.2693 98.5309 98.4391 98.2978 98.5419 98.0133C98.6446 97.721 98.7038 97.4089 98.7196 97.077C98.7275 96.8479 98.7275 96.6188 98.7196 96.3896C98.7038 96.0578 98.6446 95.7496 98.5419 95.4652C98.4391 95.1728 98.2693 94.9398 98.0322 94.7659C97.8031 94.5842 97.4831 94.4933 97.0722 94.4933C96.6851 94.4933 96.369 94.5842 96.1241 94.7659C95.887 94.9477 95.7093 95.1807 95.5907 95.4652C95.4801 95.7417 95.4169 96.0262 95.4011 96.3185C95.3932 96.4449 95.3893 96.5951 95.3893 96.7689C95.3893 96.9427 95.3932 97.0968 95.4011 97.2311C95.409 97.5077 95.4722 97.7803 95.5907 98.0489C95.7172 98.3175 95.9028 98.5388 96.1478 98.7126C96.3927 98.8864 96.7009 98.9733 97.0722 98.9733ZM103.789 99.9333C102.975 99.9333 102.327 99.6844 101.845 99.1867C101.363 98.681 101.098 97.9936 101.051 97.1244C101.043 97.0217 101.039 96.8914 101.039 96.7333C101.039 96.5674 101.043 96.4331 101.051 96.3304C101.083 95.7694 101.213 95.2795 101.442 94.8607C101.671 94.4341 101.983 94.1062 102.378 93.877C102.781 93.6479 103.251 93.5333 103.789 93.5333C104.389 93.5333 104.891 93.6598 105.294 93.9126C105.705 94.1654 106.017 94.5249 106.23 94.9911C106.444 95.4573 106.55 96.0025 106.55 96.6267V96.8282C106.55 96.9151 106.523 96.9822 106.467 97.0296C106.42 97.077 106.357 97.1007 106.278 97.1007H102.177C102.177 97.1086 102.177 97.1244 102.177 97.1482C102.177 97.1719 102.177 97.1916 102.177 97.2074C102.193 97.5314 102.264 97.8356 102.39 98.12C102.517 98.3965 102.698 98.6217 102.935 98.7956C103.172 98.9694 103.457 99.0563 103.789 99.0563C104.073 99.0563 104.31 99.0128 104.5 98.9259C104.689 98.839 104.844 98.7442 104.962 98.6415C105.081 98.5309 105.16 98.4479 105.199 98.3926C105.27 98.2899 105.325 98.2306 105.365 98.2148C105.405 98.1911 105.468 98.1793 105.555 98.1793H106.124C106.203 98.1793 106.266 98.203 106.313 98.2504C106.368 98.2899 106.392 98.3491 106.384 98.4282C106.376 98.5467 106.313 98.6928 106.195 98.8667C106.076 99.0326 105.906 99.1985 105.685 99.3644C105.464 99.5304 105.195 99.6686 104.879 99.7793C104.563 99.882 104.2 99.9333 103.789 99.9333ZM102.177 96.283H105.424V96.2474C105.424 95.8919 105.357 95.5758 105.223 95.2993C105.096 95.0227 104.911 94.8054 104.666 94.6474C104.421 94.4815 104.128 94.3985 103.789 94.3985C103.449 94.3985 103.157 94.4815 102.912 94.6474C102.675 94.8054 102.493 95.0227 102.366 95.2993C102.24 95.5758 102.177 95.8919 102.177 96.2474V96.283ZM110.788 99.9333C110.101 99.9333 109.524 99.8306 109.058 99.6252C108.592 99.4119 108.232 99.1393 107.979 98.8074C107.734 98.4677 107.604 98.1082 107.588 97.7289C107.588 97.6657 107.612 97.6104 107.659 97.563C107.714 97.5077 107.778 97.48 107.849 97.48H108.453C108.548 97.48 108.619 97.5037 108.667 97.5511C108.714 97.5985 108.746 97.6538 108.761 97.717C108.801 97.9067 108.896 98.0963 109.046 98.2859C109.204 98.4677 109.421 98.6217 109.698 98.7482C109.982 98.8667 110.346 98.9259 110.788 98.9259C111.468 98.9259 111.965 98.8074 112.281 98.5704C112.605 98.3254 112.767 98.0015 112.767 97.5985C112.767 97.322 112.68 97.1007 112.507 96.9348C112.341 96.761 112.084 96.6069 111.736 96.4726C111.389 96.3383 110.938 96.1921 110.385 96.0341C109.808 95.8682 109.33 95.6864 108.951 95.4889C108.572 95.2914 108.287 95.0464 108.098 94.7541C107.916 94.4617 107.825 94.0904 107.825 93.64C107.825 93.2133 107.94 92.8341 108.169 92.5022C108.398 92.1625 108.726 91.8938 109.153 91.6963C109.587 91.4988 110.113 91.4 110.729 91.4C111.219 91.4 111.645 91.4672 112.009 91.6015C112.38 91.7279 112.688 91.9017 112.933 92.123C113.178 92.3363 113.364 92.5694 113.49 92.8222C113.617 93.0672 113.684 93.3082 113.692 93.5452C113.692 93.6005 113.672 93.6558 113.633 93.7111C113.593 93.7585 113.53 93.7822 113.443 93.7822H112.815C112.759 93.7822 112.7 93.7664 112.637 93.7348C112.582 93.7032 112.538 93.644 112.507 93.557C112.459 93.2331 112.277 92.9605 111.961 92.7393C111.645 92.518 111.234 92.4074 110.729 92.4074C110.215 92.4074 109.796 92.5062 109.473 92.7037C109.156 92.9012 108.998 93.2094 108.998 93.6282C108.998 93.8968 109.073 94.122 109.224 94.3037C109.374 94.4775 109.611 94.6316 109.935 94.7659C110.259 94.9003 110.681 95.0425 111.203 95.1926C111.835 95.3664 112.353 95.5521 112.755 95.7496C113.158 95.9393 113.455 96.1803 113.644 96.4726C113.842 96.757 113.941 97.1244 113.941 97.5748C113.941 98.0726 113.81 98.4993 113.55 98.8548C113.289 99.2025 112.921 99.4711 112.447 99.6607C111.981 99.8425 111.428 99.9333 110.788 99.9333ZM117.829 99.9333C117.268 99.9333 116.782 99.8267 116.371 99.6133C115.968 99.3921 115.656 99.08 115.435 98.677C115.214 98.2662 115.095 97.7763 115.079 97.2074C115.071 97.0889 115.067 96.9309 115.067 96.7333C115.067 96.5358 115.071 96.3778 115.079 96.2593C115.095 95.6904 115.214 95.2044 115.435 94.8015C115.656 94.3906 115.968 94.0785 116.371 93.8652C116.782 93.644 117.268 93.5333 117.829 93.5333C118.287 93.5333 118.678 93.5965 119.002 93.723C119.334 93.8494 119.607 94.0114 119.82 94.2089C120.033 94.4064 120.191 94.6198 120.294 94.8489C120.405 95.078 120.464 95.2953 120.472 95.5007C120.48 95.5798 120.456 95.643 120.401 95.6904C120.345 95.7378 120.278 95.7615 120.199 95.7615H119.63C119.551 95.7615 119.492 95.7457 119.453 95.7141C119.413 95.6746 119.374 95.6114 119.334 95.5244C119.192 95.1373 118.998 94.8647 118.753 94.7067C118.508 94.5486 118.204 94.4696 117.841 94.4696C117.367 94.4696 116.98 94.6158 116.679 94.9082C116.387 95.2005 116.229 95.6706 116.205 96.3185C116.197 96.603 116.197 96.8795 116.205 97.1482C116.229 97.804 116.387 98.278 116.679 98.5704C116.98 98.8548 117.367 98.997 117.841 98.997C118.204 98.997 118.508 98.918 118.753 98.76C118.998 98.602 119.192 98.3294 119.334 97.9422C119.374 97.8553 119.413 97.7961 119.453 97.7644C119.492 97.7249 119.551 97.7052 119.63 97.7052H120.199C120.278 97.7052 120.345 97.7289 120.401 97.7763C120.456 97.8237 120.48 97.8869 120.472 97.9659C120.464 98.1319 120.428 98.3017 120.365 98.4756C120.302 98.6494 120.199 98.8272 120.057 99.0089C119.923 99.1827 119.753 99.3407 119.547 99.483C119.342 99.6173 119.093 99.7279 118.801 99.8148C118.516 99.8938 118.192 99.9333 117.829 99.9333ZM122.152 99.8148C122.073 99.8148 122.006 99.7911 121.95 99.7437C121.903 99.6884 121.879 99.6212 121.879 99.5422V93.9363C121.879 93.8573 121.903 93.7901 121.95 93.7348C122.006 93.6795 122.073 93.6519 122.152 93.6519H122.697C122.776 93.6519 122.843 93.6795 122.899 93.7348C122.954 93.7901 122.982 93.8573 122.982 93.9363V94.4578C123.14 94.1891 123.357 93.9877 123.633 93.8533C123.91 93.719 124.242 93.6519 124.629 93.6519H125.103C125.182 93.6519 125.245 93.6795 125.293 93.7348C125.34 93.7822 125.364 93.8454 125.364 93.9244V94.4104C125.364 94.4894 125.34 94.5526 125.293 94.6C125.245 94.6474 125.182 94.6711 125.103 94.6711H124.392C123.965 94.6711 123.629 94.7975 123.385 95.0504C123.14 95.2953 123.017 95.6311 123.017 96.0578V99.5422C123.017 99.6212 122.989 99.6884 122.934 99.7437C122.879 99.7911 122.812 99.8148 122.733 99.8148H122.152ZM126.654 99.8148C126.575 99.8148 126.508 99.7911 126.453 99.7437C126.405 99.6884 126.382 99.6212 126.382 99.5422V93.9244C126.382 93.8454 126.405 93.7822 126.453 93.7348C126.508 93.6795 126.575 93.6519 126.654 93.6519H127.223C127.302 93.6519 127.365 93.6795 127.413 93.7348C127.46 93.7822 127.484 93.8454 127.484 93.9244V99.5422C127.484 99.6212 127.46 99.6884 127.413 99.7437C127.365 99.7911 127.302 99.8148 127.223 99.8148H126.654ZM126.559 92.5022C126.48 92.5022 126.413 92.4785 126.358 92.4311C126.311 92.3758 126.287 92.3086 126.287 92.2296V91.5896C126.287 91.5106 126.311 91.4474 126.358 91.4C126.413 91.3447 126.48 91.317 126.559 91.317H127.306C127.385 91.317 127.448 91.3447 127.496 91.4C127.551 91.4474 127.579 91.5106 127.579 91.5896V92.2296C127.579 92.3086 127.551 92.3758 127.496 92.4311C127.448 92.4785 127.385 92.5022 127.306 92.5022H126.559ZM129.652 102.067C129.573 102.067 129.506 102.039 129.451 101.984C129.403 101.936 129.38 101.873 129.38 101.794V93.9244C129.38 93.8454 129.403 93.7822 129.451 93.7348C129.506 93.6795 129.573 93.6519 129.652 93.6519H130.197C130.276 93.6519 130.34 93.6795 130.387 93.7348C130.442 93.7822 130.47 93.8454 130.47 93.9244V94.4459C130.66 94.1852 130.912 93.9679 131.229 93.7941C131.545 93.6203 131.94 93.5333 132.414 93.5333C132.856 93.5333 133.231 93.6084 133.54 93.7585C133.856 93.9086 134.112 94.1141 134.31 94.3748C134.515 94.6356 134.67 94.9319 134.772 95.2637C134.875 95.5956 134.93 95.9511 134.938 96.3304C134.946 96.4568 134.95 96.5911 134.95 96.7333C134.95 96.8756 134.946 97.0099 134.938 97.1363C134.93 97.5077 134.875 97.8632 134.772 98.203C134.67 98.5348 134.515 98.8311 134.31 99.0919C134.112 99.3447 133.856 99.5501 133.54 99.7082C133.231 99.8583 132.856 99.9333 132.414 99.9333C131.955 99.9333 131.568 99.8504 131.252 99.6844C130.944 99.5106 130.691 99.2973 130.494 99.0444V101.794C130.494 101.873 130.47 101.936 130.423 101.984C130.375 102.039 130.308 102.067 130.221 102.067H129.652ZM132.165 98.9733C132.576 98.9733 132.896 98.8864 133.125 98.7126C133.362 98.5309 133.532 98.2978 133.634 98.0133C133.737 97.721 133.796 97.4089 133.812 97.077C133.82 96.8479 133.82 96.6188 133.812 96.3896C133.796 96.0578 133.737 95.7496 133.634 95.4652C133.532 95.1728 133.362 94.9398 133.125 94.7659C132.896 94.5842 132.576 94.4933 132.165 94.4933C131.778 94.4933 131.462 94.5842 131.217 94.7659C130.98 94.9477 130.802 95.1807 130.683 95.4652C130.573 95.7417 130.51 96.0262 130.494 96.3185C130.486 96.4449 130.482 96.5951 130.482 96.7689C130.482 96.9427 130.486 97.0968 130.494 97.2311C130.502 97.5077 130.565 97.7803 130.683 98.0489C130.81 98.3175 130.995 98.5388 131.24 98.7126C131.485 98.8864 131.793 98.9733 132.165 98.9733ZM138.764 99.8148C138.322 99.8148 137.962 99.7319 137.686 99.5659C137.409 99.3921 137.208 99.1511 137.081 98.843C136.955 98.5269 136.892 98.1556 136.892 97.7289V94.6H135.967C135.888 94.6 135.821 94.5763 135.766 94.5289C135.719 94.4736 135.695 94.4064 135.695 94.3274V93.9244C135.695 93.8454 135.719 93.7822 135.766 93.7348C135.821 93.6795 135.888 93.6519 135.967 93.6519H136.892V91.6726C136.892 91.5936 136.916 91.5304 136.963 91.483C137.018 91.4277 137.085 91.4 137.164 91.4H137.721C137.8 91.4 137.864 91.4277 137.911 91.483C137.966 91.5304 137.994 91.5936 137.994 91.6726V93.6519H139.464C139.543 93.6519 139.606 93.6795 139.653 93.7348C139.709 93.7822 139.736 93.8454 139.736 93.9244V94.3274C139.736 94.4064 139.709 94.4736 139.653 94.5289C139.606 94.5763 139.543 94.6 139.464 94.6H137.994V97.6459C137.994 98.0173 138.057 98.3096 138.184 98.523C138.31 98.7363 138.535 98.843 138.859 98.843H139.582C139.661 98.843 139.724 98.8706 139.772 98.9259C139.827 98.9733 139.855 99.0365 139.855 99.1156V99.5422C139.855 99.6212 139.827 99.6884 139.772 99.7437C139.724 99.7911 139.661 99.8148 139.582 99.8148H138.764Z" fill="#F2F2F2"/>
<path d="M32.4815 59.9537C31.3364 59.9537 30.3102 59.7377 29.4028 59.3056C28.4954 58.8519 27.7716 58.2469 27.2315 57.4907C26.6914 56.7346 26.4213 55.892 26.4213 54.963C26.4213 53.429 27.037 52.2191 28.2685 51.3333C29.5216 50.4475 31.1636 49.8426 33.1944 49.5185L37.4398 48.9028V48.3195C37.4398 47.4769 37.2454 46.8287 36.8565 46.375C36.4676 45.9213 35.787 45.6945 34.8148 45.6945C34.1018 45.6945 33.5293 45.8349 33.0972 46.1157C32.6651 46.3966 32.3302 46.7639 32.0926 47.2176C31.9197 47.4985 31.6713 47.6389 31.3472 47.6389H28.2685C28.0309 47.6389 27.8472 47.5741 27.7176 47.4445C27.588 47.2932 27.5339 47.1204 27.5555 46.9259C27.5555 46.5587 27.696 46.1266 27.9768 45.6296C28.2577 45.1327 28.6898 44.6466 29.2731 44.1713C29.8565 43.6744 30.6018 43.2639 31.5093 42.9398C32.4167 42.6157 33.5293 42.4537 34.8472 42.4537C36.2083 42.4537 37.375 42.6157 38.3472 42.9398C39.3194 43.2639 40.0972 43.7176 40.6805 44.3009C41.2639 44.8843 41.696 45.5648 41.9768 46.3426C42.2577 47.0988 42.3981 47.9198 42.3981 48.8056V58.8195C42.3981 59.0571 42.3225 59.2516 42.1713 59.4028C42.0201 59.554 41.8256 59.6296 41.588 59.6296H38.412C38.196 59.6296 38.0123 59.554 37.8611 59.4028C37.7099 59.2516 37.6343 59.0571 37.6343 58.8195V57.6204C37.3534 58.0309 36.9753 58.4198 36.5 58.787C36.0247 59.1327 35.4522 59.4136 34.7824 59.6296C34.1343 59.8457 33.3673 59.9537 32.4815 59.9537ZM33.7778 56.5833C34.4907 56.5833 35.1281 56.4321 35.6898 56.1296C36.2515 55.8272 36.6944 55.3627 37.0185 54.7361C37.3426 54.1096 37.5046 53.321 37.5046 52.3704V51.8195L34.4907 52.3056C33.3241 52.5 32.4707 52.7917 31.9306 53.1806C31.3904 53.5695 31.1204 54.0448 31.1204 54.6065C31.1204 55.017 31.2392 55.3735 31.4768 55.6759C31.7361 55.9784 32.071 56.2053 32.4815 56.3565C32.892 56.5077 33.3241 56.5833 33.7778 56.5833ZM47.1322 65.787C46.8945 65.787 46.7001 65.7114 46.5488 65.5602C46.3976 65.409 46.322 65.2145 46.322 64.9769V43.588C46.322 43.3503 46.3976 43.1559 46.5488 43.0046C46.7001 42.8534 46.8945 42.7778 47.1322 42.7778H50.2109C50.4485 42.7778 50.643 42.8534 50.7942 43.0046C50.9454 43.1559 51.021 43.3503 51.021 43.588V44.8195C51.5396 44.1281 52.2093 43.5664 53.0303 43.1343C53.8513 42.6806 54.8775 42.4537 56.109 42.4537C57.2325 42.4537 58.2047 42.6374 59.0257 43.0046C59.8683 43.3503 60.5704 43.858 61.1322 44.5278C61.7155 45.1759 62.1584 45.9645 62.4609 46.8935C62.7849 47.8225 62.9686 48.8704 63.0118 50.037C63.0334 50.4475 63.0442 50.8364 63.0442 51.2037C63.0442 51.571 63.0334 51.9707 63.0118 52.4028C62.9902 53.5046 62.8173 54.5201 62.4933 55.4491C62.1908 56.3781 61.7479 57.1775 61.1646 57.8472C60.5812 58.517 59.8683 59.0355 59.0257 59.4028C58.2047 59.7701 57.2325 59.9537 56.109 59.9537C55.0072 59.9537 54.0457 59.7593 53.2247 59.3704C52.4254 58.9599 51.7664 58.409 51.2479 57.7176V64.9769C51.2479 65.2145 51.1723 65.409 51.021 65.5602C50.8698 65.7114 50.6862 65.787 50.4701 65.787H47.1322ZM54.6507 56.0648C55.4717 56.0648 56.1198 55.892 56.5951 55.5463C57.0704 55.179 57.4053 54.7037 57.5997 54.1204C57.8158 53.537 57.9454 52.8997 57.9886 52.2083C58.0318 51.5386 58.0318 50.8688 57.9886 50.1991C57.9454 49.5077 57.8158 48.8704 57.5997 48.287C57.4053 47.7037 57.0704 47.2392 56.5951 46.8935C56.1198 46.5262 55.4717 46.3426 54.6507 46.3426C53.8513 46.3426 53.2031 46.5262 52.7062 46.8935C52.2093 47.2608 51.8528 47.7253 51.6368 48.287C51.4207 48.8488 51.2911 49.4537 51.2479 50.1019C51.2263 50.4907 51.2155 50.8904 51.2155 51.3009C51.2155 51.7114 51.2263 52.1219 51.2479 52.5324C51.2695 53.1374 51.3991 53.7099 51.6368 54.25C51.896 54.7685 52.2633 55.2006 52.7386 55.5463C53.2356 55.892 53.8729 56.0648 54.6507 56.0648ZM67.2594 59.6296C67.0434 59.6296 66.8597 59.554 66.7085 59.4028C66.5573 59.2516 66.4817 59.0571 66.4817 58.8195V43.588C66.4817 43.3503 66.5573 43.1559 66.7085 43.0046C66.8597 42.8534 67.0434 42.7778 67.2594 42.7778H70.5002C70.7378 42.7778 70.9323 42.8534 71.0835 43.0046C71.2347 43.1559 71.3104 43.3503 71.3104 43.588V58.8195C71.3104 59.0571 71.2347 59.2516 71.0835 59.4028C70.9323 59.554 70.7378 59.6296 70.5002 59.6296H67.2594ZM67.1622 40.1852C66.9462 40.1852 66.7625 40.1096 66.6113 39.9583C66.46 39.8071 66.3844 39.6127 66.3844 39.375V36.7824C66.3844 36.5448 66.46 36.3503 66.6113 36.1991C66.7625 36.0262 66.9462 35.9398 67.1622 35.9398H70.565C70.8026 35.9398 70.9971 36.0262 71.1483 36.1991C71.3212 36.3503 71.4076 36.5448 71.4076 36.7824V39.375C71.4076 39.6127 71.3212 39.8071 71.1483 39.9583C70.9971 40.1096 70.8026 40.1852 70.565 40.1852H67.1622ZM76.0553 51.9815C75.8392 51.9815 75.6556 51.9059 75.5043 51.7546C75.3531 51.6034 75.2775 51.4198 75.2775 51.2037V48.6111C75.2775 48.3951 75.3531 48.2114 75.5043 48.0602C75.6556 47.909 75.8392 47.8333 76.0553 47.8333H86.134C86.35 47.8333 86.5337 47.909 86.6849 48.0602C86.8361 48.2114 86.9117 48.3951 86.9117 48.6111V51.2037C86.9117 51.4198 86.8361 51.6034 86.6849 51.7546C86.5337 51.9059 86.35 51.9815 86.134 51.9815H76.0553ZM98.3683 59.9537C96.7911 59.9537 95.3976 59.662 94.1877 59.0787C92.9994 58.4954 92.0596 57.6528 91.3683 56.5509C90.6769 55.4275 90.2988 54.088 90.234 52.5324C90.2124 52.1867 90.2016 51.7546 90.2016 51.2361C90.2016 50.696 90.2124 50.2531 90.234 49.9074C90.2988 48.3303 90.6661 46.9907 91.3359 45.8889C92.0272 44.7654 92.9778 43.912 94.1877 43.3287C95.3976 42.7454 96.7911 42.4537 98.3683 42.4537C99.8158 42.4537 101.047 42.659 102.063 43.0695C103.078 43.4583 103.91 43.9553 104.558 44.5602C105.206 45.1651 105.682 45.8025 105.984 46.4722C106.308 47.1204 106.481 47.6929 106.503 48.1898C106.524 48.4059 106.449 48.6003 106.276 48.7732C106.124 48.9244 105.941 49 105.725 49H102.257C102.041 49 101.868 48.946 101.739 48.838C101.631 48.7083 101.523 48.5355 101.415 48.3195C101.112 47.5633 100.723 47.0232 100.248 46.6991C99.7726 46.375 99.1785 46.213 98.4655 46.213C97.4933 46.213 96.7263 46.5262 96.1646 47.1528C95.6028 47.7793 95.3004 48.7516 95.2572 50.0695C95.2356 50.912 95.2356 51.679 95.2572 52.3704C95.322 53.7099 95.6244 54.6821 96.1646 55.287C96.7263 55.892 97.4933 56.1945 98.4655 56.1945C99.2217 56.1945 99.8266 56.0324 100.28 55.7083C100.734 55.3843 101.112 54.8441 101.415 54.088C101.501 53.8719 101.609 53.7099 101.739 53.6019C101.868 53.4722 102.041 53.4074 102.257 53.4074H105.725C105.941 53.4074 106.124 53.4938 106.276 53.6667C106.449 53.8179 106.524 54.0016 106.503 54.2176C106.481 54.5849 106.373 55.017 106.178 55.5139C106.006 56.0108 105.714 56.5185 105.303 57.037C104.915 57.5556 104.407 58.0417 103.78 58.4954C103.154 58.9275 102.387 59.284 101.479 59.5648C100.594 59.8241 99.5565 59.9537 98.3683 59.9537ZM110.491 59.6296C110.254 59.6296 110.059 59.554 109.908 59.4028C109.757 59.2516 109.681 59.0571 109.681 58.8195V37.4306C109.681 37.1929 109.757 36.9985 109.908 36.8472C110.059 36.696 110.254 36.6204 110.491 36.6204H113.732C113.948 36.6204 114.132 36.696 114.283 36.8472C114.434 36.9985 114.51 37.1929 114.51 37.4306V58.8195C114.51 59.0571 114.434 59.2516 114.283 59.4028C114.132 59.554 113.948 59.6296 113.732 59.6296H110.491ZM120.27 59.6296C120.054 59.6296 119.87 59.554 119.719 59.4028C119.567 59.2516 119.492 59.0571 119.492 58.8195V43.588C119.492 43.3503 119.567 43.1559 119.719 43.0046C119.87 42.8534 120.054 42.7778 120.27 42.7778H123.51C123.748 42.7778 123.942 42.8534 124.094 43.0046C124.245 43.1559 124.321 43.3503 124.321 43.588V58.8195C124.321 59.0571 124.245 59.2516 124.094 59.4028C123.942 59.554 123.748 59.6296 123.51 59.6296H120.27ZM120.172 40.1852C119.956 40.1852 119.773 40.1096 119.621 39.9583C119.47 39.8071 119.395 39.6127 119.395 39.375V36.7824C119.395 36.5448 119.47 36.3503 119.621 36.1991C119.773 36.0262 119.956 35.9398 120.172 35.9398H123.575C123.813 35.9398 124.007 36.0262 124.158 36.1991C124.331 36.3503 124.418 36.5448 124.418 36.7824V39.375C124.418 39.6127 124.331 39.8071 124.158 39.9583C124.007 40.1096 123.813 40.1852 123.575 40.1852H120.172ZM136.03 59.9537C133.545 59.9537 131.569 59.2624 130.099 57.8796C128.652 56.4969 127.885 54.4877 127.798 51.8519C127.798 51.679 127.798 51.4522 127.798 51.1713C127.798 50.8688 127.798 50.6312 127.798 50.4583C127.885 48.7948 128.263 47.3688 128.933 46.1806C129.603 44.9707 130.542 44.0525 131.752 43.4259C132.962 42.7778 134.377 42.4537 135.998 42.4537C137.812 42.4537 139.325 42.8318 140.535 43.588C141.766 44.3225 142.684 45.338 143.289 46.6343C143.916 47.909 144.229 49.3781 144.229 51.0417V51.787C144.229 52.0031 144.143 52.1867 143.97 52.338C143.819 52.4892 143.635 52.5648 143.419 52.5648H132.822C132.822 52.5864 132.822 52.6296 132.822 52.6945C132.822 52.7377 132.822 52.7809 132.822 52.8241C132.843 53.5154 132.973 54.1528 133.211 54.7361C133.47 55.2978 133.826 55.7516 134.28 56.0972C134.755 56.4429 135.317 56.6157 135.965 56.6157C136.505 56.6157 136.948 56.5401 137.294 56.3889C137.64 56.2377 137.92 56.054 138.136 55.838C138.374 55.6219 138.547 55.4383 138.655 55.287C138.849 55.071 139.001 54.9414 139.109 54.8982C139.238 54.8333 139.433 54.8009 139.692 54.8009H143.062C143.278 54.8009 143.451 54.8657 143.581 54.9954C143.732 55.1034 143.797 55.2654 143.775 55.4815C143.754 55.8272 143.57 56.2593 143.224 56.7778C142.9 57.2747 142.414 57.7716 141.766 58.2685C141.118 58.7438 140.308 59.1435 139.336 59.4676C138.385 59.7917 137.283 59.9537 136.03 59.9537ZM132.822 49.6157H139.173V49.5509C139.173 48.7732 139.044 48.1034 138.785 47.5417C138.547 46.9583 138.19 46.5046 137.715 46.1806C137.24 45.8565 136.667 45.6945 135.998 45.6945C135.328 45.6945 134.755 45.8565 134.28 46.1806C133.805 46.5046 133.437 46.9583 133.178 47.5417C132.94 48.1034 132.822 48.7732 132.822 49.5509V49.6157ZM148.246 59.6296C148.03 59.6296 147.847 59.554 147.695 59.4028C147.544 59.2516 147.469 59.0571 147.469 58.8195V43.588C147.469 43.3503 147.544 43.1559 147.695 43.0046C147.847 42.8534 148.03 42.7778 148.246 42.7778H151.422C151.66 42.7778 151.854 42.8534 152.006 43.0046C152.157 43.1559 152.232 43.3503 152.232 43.588V44.8519C152.794 44.1605 153.518 43.588 154.404 43.1343C155.29 42.6806 156.37 42.4537 157.644 42.4537C158.919 42.4537 160.032 42.7454 160.982 43.3287C161.955 43.8904 162.711 44.7222 163.251 45.8241C163.813 46.9043 164.094 48.2222 164.094 49.7778V58.8195C164.094 59.0571 164.007 59.2516 163.834 59.4028C163.683 59.554 163.499 59.6296 163.283 59.6296H159.848C159.61 59.6296 159.416 59.554 159.265 59.4028C159.114 59.2516 159.038 59.0571 159.038 58.8195V49.9722C159.038 48.8272 158.757 47.9414 158.195 47.3148C157.655 46.6667 156.856 46.3426 155.797 46.3426C154.782 46.3426 153.972 46.6667 153.367 47.3148C152.762 47.9414 152.459 48.8272 152.459 49.9722V58.8195C152.459 59.0571 152.384 59.2516 152.232 59.4028C152.081 59.554 151.898 59.6296 151.681 59.6296H148.246ZM175.888 59.6296C174.549 59.6296 173.404 59.4136 172.453 58.9815C171.502 58.5278 170.779 57.8364 170.282 56.9074C169.807 55.9784 169.569 54.8117 169.569 53.4074V46.6019H167.041C166.803 46.6019 166.609 46.5262 166.458 46.375C166.307 46.2238 166.231 46.0293 166.231 45.7917V43.588C166.231 43.3503 166.307 43.1559 166.458 43.0046C166.609 42.8534 166.803 42.7778 167.041 42.7778H169.569V37.4306C169.569 37.1929 169.644 36.9985 169.796 36.8472C169.969 36.696 170.163 36.6204 170.379 36.6204H173.555C173.793 36.6204 173.987 36.696 174.138 36.8472C174.29 36.9985 174.365 37.1929 174.365 37.4306V42.7778H178.416C178.632 42.7778 178.816 42.8534 178.967 43.0046C179.118 43.1559 179.194 43.3503 179.194 43.588V45.7917C179.194 46.0293 179.118 46.2238 178.967 46.375C178.816 46.5262 178.632 46.6019 178.416 46.6019H174.365V53.0185C174.365 53.8395 174.506 54.4877 174.786 54.963C175.089 55.4167 175.607 55.6435 176.342 55.6435H178.708C178.924 55.6435 179.107 55.7191 179.259 55.8704C179.41 56.0216 179.486 56.2053 179.486 56.4213V58.8195C179.486 59.0571 179.41 59.2516 179.259 59.4028C179.107 59.554 178.924 59.6296 178.708 59.6296H175.888Z" fill="#F2F2F2"/>
</g>
<defs>
<clipPath id="clip0_20_14">
<rect width="350" height="200" fill="white"/>
</clipPath>
</defs>
</svg>
